HIERARCHY
ROOT Hips
{
	OFFSET 0.000000 0.000000 0.000000
	CHANNELS 6 Xposition Yposition Zposition Xrotation Yrotation Zrotation
	JOINT LeftUpLeg_virtual
	{
		OFFSET 0.000000 0.000000 0.000000
		CHANNELS 3 Xrotation Yrotation Zrotation
		JOINT LeftUpLeg
		{
			OFFSET 10.205400 -3.823500 0.155100
			CHANNELS 3 Xrotation Yrotation Zrotation
			JOINT LeftLeg
			{
				OFFSET 0.708757 -12.982077 0.567790
				CHANNELS 3 Xrotation Yrotation Zrotation
				JOINT LeftFoot
				{
					OFFSET -0.708756 -10.717838 -2.184338
					CHANNELS 3 Xrotation Yrotation Zrotation
					JOINT LeftToeBase
					{
						OFFSET 0.108149 -7.191104 7.560241
						CHANNELS 3 Xrotation Yrotation Zrotation
						JOINT LeftToe_End
						{
							OFFSET 0.070230 0.081724 4.490308
							CHANNELS 3 Xrotation Yrotation Zrotation
							End Site
							{
								OFFSET 0 0 0
							}
						}
					}
				}
			}
		}
	}
	JOINT RightUpLeg_virtual
	{
		OFFSET 0.000000 0.000000 0.000000
		CHANNELS 3 Xrotation Yrotation Zrotation
		JOINT RightUpLeg
		{
			OFFSET -10.205400 -3.823500 0.005500
			CHANNELS 3 Xrotation Yrotation Zrotation
			JOINT RightLeg
			{
				OFFSET -0.708756 -12.982134 0.610632
				CHANNELS 3 Xrotation Yrotation Zrotation
				JOINT RightFoot
				{
					OFFSET 0.708754 -10.717769 -1.945823
					CHANNELS 3 Xrotation Yrotation Zrotation
					JOINT RightToeBase
					{
						OFFSET -0.108140 -7.191069 7.372968
						CHANNELS 3 Xrotation Yrotation Zrotation
						JOINT RightToe_End
						{
							OFFSET -0.070227 0.081735 4.479403
							CHANNELS 3 Xrotation Yrotation Zrotation
							End Site
							{
								OFFSET 0 0 0
							}
						}
					}
				}
			}
		}
	}
	JOINT Spine_virtual
	{
		OFFSET 0.000000 0.000000 0.000000
		CHANNELS 3 Xrotation Yrotation Zrotation
		JOINT Spine
		{
			OFFSET 0.000000 6.876099 0.125700
			CHANNELS 3 Xrotation Yrotation Zrotation
			JOINT Spine1
			{
				OFFSET 0.000000 5.730043 0.104720
				CHANNELS 3 Xrotation Yrotation Zrotation
				JOINT Spine1_split
				{
					OFFSET 0.000000 5.730043 0.104720
					CHANNELS 3 Xrotation Yrotation Zrotation
					JOINT Spine2
					{
						OFFSET 0.000000 5.730043 0.104720
						CHANNELS 3 Xrotation Yrotation Zrotation
						JOINT Neck_virtual
						{
							OFFSET 0.000000 0.000000 0.000000
							CHANNELS 3 Xrotation Yrotation Zrotation
							JOINT Neck
							{
								OFFSET 0.000000 10.314075 0.188496
								CHANNELS 3 Xrotation Yrotation Zrotation
								JOINT Head
								{
									OFFSET 0.000000 7.643700 -2.377400
									CHANNELS 3 Xrotation Yrotation Zrotation
									JOINT HeadTop_End
									{
										OFFSET 0.000000 43.788605 -13.619600
										CHANNELS 3 Xrotation Yrotation Zrotation
										End Site
										{
											OFFSET 0 0 0
										}
									}
								}
							}
						}
						JOINT LeftShoulder_virtual
						{
							OFFSET 0.000000 0.000000 0.000000
							CHANNELS 3 Xrotation Yrotation Zrotation
							JOINT LeftShoulder
							{
								OFFSET 2.196100 4.412489 0.087492
								CHANNELS 3 Xrotation Yrotation Zrotation
								JOINT LeftShoulder_split
								{
									OFFSET 2.196100 4.412489 0.087492
									CHANNELS 3 Xrotation Yrotation Zrotation
									JOINT LeftArm
									{
										OFFSET 8.771219 -2.981674 -0.026999
										CHANNELS 3 Xrotation Yrotation Zrotation
										JOINT LeftForeArm
										{
											OFFSET 8.512804 0.000000 -0.000000
											CHANNELS 3 Xrotation Yrotation Zrotation
											JOINT LeftHand
											{
												OFFSET 18.484802 0.000000 -0.000000
												CHANNELS 3 Xrotation Yrotation Zrotation
												End Site
												{
													OFFSET 0 0 0
												}
											}
										}
									}
								}
							}
						}
						JOINT RightShoulder_virtual
						{
							OFFSET 0.000000 0.000000 0.000000
							CHANNELS 3 Xrotation Yrotation Zrotation
							JOINT RightShoulder
							{
								OFFSET -2.196100 4.412496 0.070690
								CHANNELS 3 Xrotation Yrotation Zrotation
								JOINT RightShoulder_split
								{
									OFFSET -2.196100 4.412496 0.070690
									CHANNELS 3 Xrotation Yrotation Zrotation
									JOINT RightArm
									{
										OFFSET -8.771282 -2.981682 -0.094208
										CHANNELS 3 Xrotation Yrotation Zrotation
										JOINT RightForeArm
										{
											OFFSET -8.494598 0.000000 0.000000
											CHANNELS 3 Xrotation Yrotation Zrotation
											JOINT RightHand
											{
												OFFSET -18.483803 0.000000 0.000001
												CHANNELS 3 Xrotation Yrotation Zrotation
												End Site
												{
													OFFSET 0 0 0
												}
											}
										}
									}
								}
							}
						}
					}
				}
			}
		}
	}
}
MOTION
Frames: 7
Frame Time: 0.03333333
0.576979 49.404350 7.995484 0.000000 0.000000 0.000000 5.989070 -38.490032 2.884503 -84.371851 -19.894924 22.901874 86.371710 -0.551022 5.060609 0.426488 2.771458 -5.151927 -7.598854 2.222694 -1.785167 0.000000 0.000000 0.000000 6.369436 -40.471360 2.545578 -120.376033 -38.604612 -3.031092 114.107811 15.775234 -13.326137 41.228412 6.442062 28.439562 8.016531 4.610708 -2.549164 0.000000 0.000000 0.000000 6.725578 -39.893212 2.005223 32.084930 -5.788293 -7.990510 13.398388 1.024068 -3.695166 0.436446 1.182849 1.072145 0.000000 0.000000 0.000000 13.109862 1.102810 -2.537587 -7.611460 18.361217 -13.719821 -25.917843 11.609693 4.656135 0.000000 0.000000 0.000000 14.318724 1.241055 -3.142035 13.222841 -18.407397 5.412661 1.076320 -3.969547 -3.067828 -59.237411 -9.609701 -5.874296 47.202392 -15.535286 28.808956 0.000000 0.000000 0.000000 15.062225 1.309738 -3.019515 18.909225 26.734337 -7.408755 0.754962 3.594088 1.925065 -35.482751 1.217457 8.118864 -43.239216 48.656379 33.261010 0.000000 0.000000 0.000000 
0.576553 49.392624 7.974574 0.000000 0.000000 0.000000 6.003392 -38.700135 2.994206 -84.321465 -19.760847 23.014536 86.332430 -0.659593 4.887698 0.345952 3.066388 -5.269426 -7.590200 2.218610 -1.794429 0.000000 0.000000 0.000000 6.417768 -40.681399 2.666883 -119.943682 -38.684480 -2.901847 113.838319 15.843951 -13.425266 40.970316 6.298632 28.128421 7.979710 4.629044 -2.675606 0.000000 0.000000 0.000000 6.679865 -39.966490 2.077210 32.045062 -5.811729 -8.031629 13.355546 1.043196 -3.685389 0.371868 1.193966 1.093704 0.000000 0.000000 0.000000 13.141434 1.104818 -2.549872 -7.610718 18.358527 -13.721458 -25.792384 11.736903 4.503264 0.000000 0.000000 0.000000 14.285792 1.257397 -3.124752 12.948420 -18.455258 4.701405 1.239519 -4.076332 -3.333925 -58.425117 -9.021684 -5.760529 47.066396 -15.441668 28.564382 0.000000 0.000000 0.000000 15.034657 1.292191 -3.032015 18.414721 27.110073 -6.377488 0.750291 3.694624 1.898854 -34.390491 1.073858 8.061297 -43.363819 48.410052 33.192472 0.000000 0.000000 0.000000 
0.571148 49.376705 7.955751 0.000000 0.000000 0.000000 6.080289 -38.844915 3.145870 -84.222544 -19.651393 23.033432 86.200983 -0.797215 4.722865 0.160407 3.416442 -5.376364 -7.613540 2.198596 -1.763619 0.000000 0.000000 0.000000 6.503329 -40.811015 2.814804 -119.531193 -38.708980 -2.792811 113.599351 15.872081 -13.500478 40.664146 6.178235 27.848631 7.947173 4.631960 -2.771317 0.000000 0.000000 0.000000 6.676598 -40.051977 2.195909 31.947346 -5.821084 -8.062082 13.295691 1.054398 -3.673967 0.337657 1.197674 1.119898 0.000000 0.000000 0.000000 13.141435 1.106616 -2.566890 -7.535221 18.349004 -13.741982 -25.622340 11.884632 4.379794 0.000000 0.000000 0.000000 14.241091 1.270958 -3.109149 12.719833 -18.436188 4.090091 1.306958 -4.187228 -3.628682 -57.514537 -8.192791 -5.490993 46.922112 -15.483554 28.387262 0.000000 0.000000 0.000000 14.989368 1.280800 -3.043616 17.957500 27.419210 -5.478843 0.752106 3.763353 1.948120 -33.462565 0.715502 7.883526 -43.454910 48.060783 33.065376 0.000000 0.000000 0.000000 
0.563714 49.359398 7.930571 0.000000 0.000000 0.000000 6.200088 -38.905359 3.332223 -84.081152 -19.584181 22.944381 85.997505 -0.948298 4.574823 -0.081397 3.807509 -5.460756 -7.681335 2.165219 -1.694526 0.000000 0.000000 0.000000 6.610529 -40.863888 2.991518 -119.156912 -38.688278 -2.746467 113.391631 15.868345 -13.541168 40.317172 6.105411 27.614100 7.909595 4.626167 -2.847317 0.000000 0.000000 0.000000 6.693894 -40.140967 2.359608 31.809502 -5.827103 -8.084773 13.234498 1.055952 -3.663088 0.357261 1.223297 1.178981 0.000000 0.000000 0.000000 13.119076 1.108604 -2.587500 -7.423626 18.330126 -13.764834 -25.416428 12.025365 4.302503 0.000000 0.000000 0.000000 14.187986 1.280318 -3.097822 12.523627 -18.362897 3.528654 1.256903 -4.246681 -3.940101 -56.513146 -7.097769 -5.131811 46.842178 -15.705885 28.331222 0.000000 0.000000 0.000000 14.931065 1.275234 -3.050351 17.542975 27.662130 -4.686501 0.783248 3.793893 2.064666 -32.755367 0.337885 7.656918 -43.422637 47.576591 32.797585 0.000000 0.000000 0.000000 
0.551570 49.343880 7.908511 0.000000 0.000000 0.000000 6.321767 -38.905307 3.543614 -83.889237 -19.549437 22.781353 85.744071 -1.094285 4.437069 -0.354006 4.232808 -5.497983 -7.779958 2.124887 -1.609535 0.000000 0.000000 0.000000 6.741307 -40.860329 3.202465 -118.834964 -38.633483 -2.798385 113.223377 15.843379 -13.535425 39.953666 6.092764 27.427407 7.837639 4.617648 -2.916240 0.000000 0.000000 0.000000 6.712045 -40.220296 2.547657 31.650636 -5.834477 -8.103173 13.171924 1.053300 -3.658710 0.405233 1.259106 1.201530 0.000000 0.000000 0.000000 13.073055 1.112738 -2.612028 -7.306544 18.311457 -13.789776 -25.193315 12.152617 4.284799 0.000000 0.000000 0.000000 14.122878 1.284043 -3.091820 12.332754 -18.247706 2.942814 1.097298 -4.213263 -4.169533 -55.481579 -5.704352 -4.701118 46.916583 -16.158378 28.446840 0.000000 0.000000 0.000000 14.857492 1.273508 -3.051843 17.168739 27.835017 -3.961968 0.811346 3.774577 2.232564 -32.224102 0.072038 7.420236 -43.266561 46.992634 32.407895 0.000000 0.000000 0.000000 
0.538797 49.331890 7.890486 0.000000 0.000000 0.000000 6.438936 -38.884608 3.776424 -83.657987 -19.519291 22.573589 85.462339 -1.230361 4.311502 -0.629626 4.661267 -5.496019 -7.883704 2.084592 -1.527754 0.000000 0.000000 0.000000 6.866866 -40.855139 3.437507 -118.578764 -38.552125 -2.959021 113.106778 15.818298 -13.496727 39.606771 6.152540 27.288597 7.716161 4.609684 -2.986852 0.000000 0.000000 0.000000 6.701090 -40.282499 2.739823 31.493784 -5.842420 -8.112944 13.108624 1.048818 -3.656215 0.444482 1.273077 1.212302 0.000000 0.000000 0.000000 13.005589 1.118865 -2.632939 -7.216181 18.293273 -13.811757 -24.964854 12.233451 4.318689 0.000000 0.000000 0.000000 14.040522 1.286631 -3.086768 12.126741 -18.069525 2.274298 0.850226 -4.123297 -4.263792 -54.524420 -4.067894 -4.232655 47.159137 -16.777450 28.722592 0.000000 0.000000 0.000000 14.767199 1.273606 -3.044059 16.827201 27.933788 -3.264554 0.819893 3.681860 2.416674 -31.832431 -0.082843 7.212800 -42.994255 46.324129 31.920175 0.000000 0.000000 0.000000 
0.522081 49.323830 7.883229 0.000000 0.000000 0.000000 6.516450 -38.871570 4.015092 -83.390510 -19.455550 22.379526 85.168368 -1.373767 4.201038 -0.887164 5.043881 -5.500512 -7.963604 2.045638 -1.458196 0.000000 0.000000 0.000000 6.973476 -40.861398 3.687721 -118.408187 -38.443979 -3.215616 113.030936 15.802990 -13.436428 39.307944 6.276566 27.192269 7.539440 4.605309 -3.054731 0.000000 0.000000 0.000000 6.651817 -40.312815 2.907857 31.349434 -5.848306 -8.113023 13.035655 1.043432 -3.645754 0.474662 1.312394 1.177060 0.000000 0.000000 0.000000 12.916352 1.123972 -2.644602 -7.173344 18.272720 -13.830621 -24.741899 12.264721 4.379904 0.000000 0.000000 0.000000 13.944209 1.287577 -3.076528 11.898254 -17.795834 1.513763 0.521825 -3.994540 -4.277777 -53.701338 -2.216795 -3.745985 47.471597 -17.396984 29.051854 0.000000 0.000000 0.000000 14.656438 1.272424 -3.017170 16.503325 27.922368 -2.572862 0.758857 3.598090 2.542440 -31.467354 -0.236992 7.063914 -42.716532 45.677590 31.472269 0.000000 0.000000 0.000000 
